<svg width="183" height="30" viewBox="0 0 183 30" fill="none" xmlns="http://www.w3.org/2000/svg">
<path d="M0.023379 0.489899H10.8271C13.1656 0.489899 15.2234 0.769837 17.5385 2.5661C19.3391 3.94246 20.7656 6.41525 20.7656 9.6112C20.7656 13.7869 17.5385 18.4759 11.4117 18.4759H4.53662V30H0V0.489899H0.023379ZM4.56002 14.2535H11.2714C14.6154 14.2535 16.2524 11.804 16.2524 9.49456C16.2524 7.51167 15.4573 6.29861 14.3348 5.55211C13.3293 4.89892 12.4173 4.73562 11.1077 4.73562H4.56002V14.2535Z" fill="#818181"/>
<path d="M25.3177 0.513184H36.9633C39.4888 0.513184 41.4531 1.09639 43.0433 2.44942C44.727 3.84911 46.0131 6.08861 46.0131 8.74802C46.0131 12.5505 43.8384 15.6765 40.2371 16.9129L47.159 30H41.8039L35.6537 17.4028H29.8777V30H25.3411V0.513184H25.3177ZM29.8543 13.437H36.6827C40.0734 13.437 41.7571 11.2441 41.7571 8.74802C41.7571 7.20836 41.1725 6.06528 40.2371 5.38877C39.3953 4.75891 38.4833 4.47897 36.9165 4.47897H29.8309V13.437H29.8543Z" fill="#818181"/>
<path d="M53.0207 5.29549C54.4471 2.72939 57.6742 0 62.3745 0C67.0749 0 70.302 2.72939 71.7284 5.29549C72.6872 7.0451 73.038 7.90824 73.038 15C73.038 22.0918 72.7106 22.9549 71.7284 24.7045C70.302 27.2706 67.0749 30 62.3745 30C57.6742 30 54.4471 27.2706 53.0207 24.7045C52.0619 22.9549 51.7111 22.0918 51.7111 15C51.7111 7.90824 52.0385 7.0451 53.0207 5.29549ZM57.7444 23.3515C58.6564 24.5179 60.2232 25.4977 62.3512 25.4977C64.4792 25.4977 66.0459 24.4946 66.9579 23.3515C68.1272 21.8585 68.4779 21.042 68.4779 14.9767C68.4779 8.93468 68.1506 8.09486 66.9579 6.60186C66.0459 5.43546 64.4792 4.45568 62.3512 4.45568C60.2232 4.45568 58.6564 5.45878 57.7444 6.60186C56.5751 8.09486 56.2244 8.91135 56.2244 14.9767C56.2477 21.042 56.5751 21.8585 57.7444 23.3515Z" fill="#818181"/>
<path d="M85.5174 20.8966L92.7667 9.11593C94.0061 9.74579 95.0584 10.5389 95.9236 11.4487L100.694 3.65715C99.8289 2.72402 98.7766 1.93086 97.5372 1.32433C91.8079 -1.56836 84.4651 0.484518 81.1445 5.89665C77.8473 11.2854 79.7882 18.0273 85.5174 20.8966Z" fill="#F27000"/>
<path d="M92.7667 9.11594L85.5174 20.8966C84.278 20.2668 83.2257 19.4736 82.3605 18.5638L77.59 26.3554C78.4553 27.2886 79.5076 28.0817 80.747 28.6882C86.4762 31.5809 93.819 29.5281 97.1396 24.1159C100.437 18.7271 98.4959 11.9853 92.7667 9.11594Z" fill="#E20C77"/>
<path d="M105.246 0.489899H116.05C118.388 0.489899 120.446 0.793163 122.761 2.5661C124.562 3.94246 125.988 6.41525 125.988 9.6112C125.988 13.7869 122.761 18.4759 116.635 18.4759H109.759V30H105.246V0.489899ZM109.783 14.2535H116.494C119.838 14.2535 121.475 11.804 121.475 9.49456C121.475 7.51167 120.68 6.29861 119.558 5.55211C118.552 4.89892 117.64 4.71229 116.331 4.71229H109.783V14.2535Z" fill="#818181"/>
<path d="M130.541 0.489899H149.599V4.71229H135.077V13.1338H147.471V17.0995H135.077V25.7543H149.599V30H130.541V0.489899Z" fill="#818181"/>
<path d="M154.151 0.513184H165.797C168.299 0.513184 170.287 1.09639 171.877 2.44942C173.56 3.84911 174.847 6.08861 174.847 8.74802C174.847 12.5505 172.672 15.6765 169.071 16.9129L175.992 30H170.637L164.487 17.4028H158.711V30H154.151V0.513184ZM158.688 13.437H165.516C168.907 13.437 170.591 11.2441 170.591 8.74802C170.591 7.20836 170.006 6.06528 169.071 5.38876C168.229 4.7589 167.317 4.47897 165.75 4.47897H158.664V13.437H158.688Z" fill="#818181"/>
<path d="M181.199 28.6469V30H180.989V28.6469H180.545V28.437H181.644V28.6469H181.199Z" fill="#818181"/>
<path d="M182.766 30V28.9502L182.415 29.72H182.252L181.878 28.9502V30H181.644V28.437H181.878L182.345 29.4168L182.766 28.437H183V30H182.766Z" fill="#818181"/>
</svg>
